<mxfile host="app.diagrams.net" modified="2024-02-16T02:00:04.884Z" agent="Mozilla/5.0 (Windows NT 10.0; Win64; x64) AppleWebKit/537.36 (KHTML, like Gecko) Chrome/121.0.0.0 Safari/537.36 Edg/121.0.0.0" etag="x_aPEuhw5bXPeXpfpMob" version="23.1.2" type="github" pages="2">
  <diagram name="Page-1" id="tOXUqJd4fQw2Szhd80xJ">
    <mxGraphModel dx="1042" dy="667" grid="1" gridSize="10" guides="1" tooltips="1" connect="1" arrows="1" fold="1" page="1" pageScale="1" pageWidth="850" pageHeight="1100" math="0" shadow="0">
      <root>
        <mxCell id="0" />
        <mxCell id="1" parent="0" />
        <mxCell id="7E2WSYNp846uDjrKb0Co-6" value="" style="shape=table;startSize=0;container=1;collapsible=0;childLayout=tableLayout;" parent="1" vertex="1">
          <mxGeometry x="40" y="80" width="180" height="40" as="geometry" />
        </mxCell>
        <mxCell id="7E2WSYNp846uDjrKb0Co-7" value="" style="shape=tableRow;horizontal=0;startSize=0;swimlaneHead=0;swimlaneBody=0;strokeColor=inherit;top=0;left=0;bottom=0;right=0;collapsible=0;dropTarget=0;fillColor=none;points=[[0,0.5],[1,0.5]];portConstraint=eastwest;" parent="7E2WSYNp846uDjrKb0Co-6" vertex="1">
          <mxGeometry width="180" height="40" as="geometry" />
        </mxCell>
        <mxCell id="7E2WSYNp846uDjrKb0Co-8" value="&lt;u&gt;Code&lt;/u&gt;" style="shape=partialRectangle;html=1;whiteSpace=wrap;connectable=0;strokeColor=inherit;overflow=hidden;fillColor=none;top=0;left=0;bottom=0;right=0;pointerEvents=1;align=center;" parent="7E2WSYNp846uDjrKb0Co-7" vertex="1">
          <mxGeometry width="60" height="40" as="geometry">
            <mxRectangle width="60" height="40" as="alternateBounds" />
          </mxGeometry>
        </mxCell>
        <mxCell id="7E2WSYNp846uDjrKb0Co-9" value="Name" style="shape=partialRectangle;html=1;whiteSpace=wrap;connectable=0;strokeColor=inherit;overflow=hidden;fillColor=none;top=0;left=0;bottom=0;right=0;pointerEvents=1;" parent="7E2WSYNp846uDjrKb0Co-7" vertex="1">
          <mxGeometry x="60" width="60" height="40" as="geometry">
            <mxRectangle width="60" height="40" as="alternateBounds" />
          </mxGeometry>
        </mxCell>
        <mxCell id="7E2WSYNp846uDjrKb0Co-10" value="Addr" style="shape=partialRectangle;html=1;whiteSpace=wrap;connectable=0;strokeColor=inherit;overflow=hidden;fillColor=none;top=0;left=0;bottom=0;right=0;pointerEvents=1;" parent="7E2WSYNp846uDjrKb0Co-7" vertex="1">
          <mxGeometry x="120" width="60" height="40" as="geometry">
            <mxRectangle width="60" height="40" as="alternateBounds" />
          </mxGeometry>
        </mxCell>
        <mxCell id="7E2WSYNp846uDjrKb0Co-11" value="" style="shape=table;startSize=0;container=1;collapsible=0;childLayout=tableLayout;" parent="1" vertex="1">
          <mxGeometry x="40" y="720" width="180" height="40" as="geometry" />
        </mxCell>
        <mxCell id="7E2WSYNp846uDjrKb0Co-12" value="" style="shape=tableRow;horizontal=0;startSize=0;swimlaneHead=0;swimlaneBody=0;strokeColor=inherit;top=0;left=0;bottom=0;right=0;collapsible=0;dropTarget=0;fillColor=none;points=[[0,0.5],[1,0.5]];portConstraint=eastwest;" parent="7E2WSYNp846uDjrKb0Co-11" vertex="1">
          <mxGeometry width="180" height="40" as="geometry" />
        </mxCell>
        <mxCell id="7E2WSYNp846uDjrKb0Co-13" value="&lt;u&gt;Branch_no&lt;/u&gt;" style="shape=partialRectangle;html=1;whiteSpace=wrap;connectable=0;strokeColor=inherit;overflow=hidden;fillColor=none;top=0;left=0;bottom=0;right=0;pointerEvents=1;align=left;" parent="7E2WSYNp846uDjrKb0Co-12" vertex="1">
          <mxGeometry width="60" height="40" as="geometry">
            <mxRectangle width="60" height="40" as="alternateBounds" />
          </mxGeometry>
        </mxCell>
        <mxCell id="7E2WSYNp846uDjrKb0Co-14" value="&lt;u&gt;Code&lt;/u&gt;" style="shape=partialRectangle;html=1;whiteSpace=wrap;connectable=0;strokeColor=inherit;overflow=hidden;fillColor=none;top=0;left=0;bottom=0;right=0;pointerEvents=1;" parent="7E2WSYNp846uDjrKb0Co-12" vertex="1">
          <mxGeometry x="60" width="60" height="40" as="geometry">
            <mxRectangle width="60" height="40" as="alternateBounds" />
          </mxGeometry>
        </mxCell>
        <mxCell id="7E2WSYNp846uDjrKb0Co-15" value="Addr" style="shape=partialRectangle;html=1;whiteSpace=wrap;connectable=0;strokeColor=inherit;overflow=hidden;fillColor=none;top=0;left=0;bottom=0;right=0;pointerEvents=1;" parent="7E2WSYNp846uDjrKb0Co-12" vertex="1">
          <mxGeometry x="120" width="60" height="40" as="geometry">
            <mxRectangle width="60" height="40" as="alternateBounds" />
          </mxGeometry>
        </mxCell>
        <mxCell id="7E2WSYNp846uDjrKb0Co-16" value="&lt;font style=&quot;font-size: 16px;&quot;&gt;&lt;b&gt;BANK&lt;/b&gt;&lt;/font&gt;" style="text;html=1;align=center;verticalAlign=middle;resizable=0;points=[];autosize=1;strokeColor=none;fillColor=none;" parent="1" vertex="1">
          <mxGeometry x="30" y="40" width="70" height="30" as="geometry" />
        </mxCell>
        <mxCell id="7E2WSYNp846uDjrKb0Co-17" value="&lt;font style=&quot;font-size: 16px;&quot;&gt;&lt;b&gt;ACCOUNT&lt;/b&gt;&lt;/font&gt;" style="text;html=1;align=center;verticalAlign=middle;resizable=0;points=[];autosize=1;strokeColor=none;fillColor=none;" parent="1" vertex="1">
          <mxGeometry x="30" y="200" width="100" height="30" as="geometry" />
        </mxCell>
        <mxCell id="7E2WSYNp846uDjrKb0Co-18" value="&lt;font style=&quot;font-size: 16px;&quot;&gt;&lt;b&gt;LOAN&lt;/b&gt;&lt;/font&gt;" style="text;html=1;align=center;verticalAlign=middle;resizable=0;points=[];autosize=1;strokeColor=none;fillColor=none;" parent="1" vertex="1">
          <mxGeometry x="32" y="360" width="70" height="30" as="geometry" />
        </mxCell>
        <mxCell id="7E2WSYNp846uDjrKb0Co-19" value="&lt;font style=&quot;font-size: 16px;&quot;&gt;&lt;b&gt;CUSTOMER&lt;/b&gt;&lt;/font&gt;" style="text;html=1;align=center;verticalAlign=middle;resizable=0;points=[];autosize=1;strokeColor=none;fillColor=none;" parent="1" vertex="1">
          <mxGeometry x="32" y="520" width="110" height="30" as="geometry" />
        </mxCell>
        <mxCell id="7E2WSYNp846uDjrKb0Co-20" value="&lt;font style=&quot;font-size: 16px;&quot;&gt;&lt;b&gt;BANK_BRANCH&lt;/b&gt;&lt;/font&gt;" style="text;html=1;align=center;verticalAlign=middle;resizable=0;points=[];autosize=1;strokeColor=none;fillColor=none;" parent="1" vertex="1">
          <mxGeometry x="30" y="680" width="150" height="30" as="geometry" />
        </mxCell>
        <mxCell id="7E2WSYNp846uDjrKb0Co-21" value="" style="shape=table;startSize=0;container=1;collapsible=0;childLayout=tableLayout;" parent="1" vertex="1">
          <mxGeometry x="40" y="240" width="240" height="40" as="geometry" />
        </mxCell>
        <mxCell id="7E2WSYNp846uDjrKb0Co-22" value="" style="shape=tableRow;horizontal=0;startSize=0;swimlaneHead=0;swimlaneBody=0;strokeColor=inherit;top=0;left=0;bottom=0;right=0;collapsible=0;dropTarget=0;fillColor=none;points=[[0,0.5],[1,0.5]];portConstraint=eastwest;" parent="7E2WSYNp846uDjrKb0Co-21" vertex="1">
          <mxGeometry width="240" height="40" as="geometry" />
        </mxCell>
        <mxCell id="7E2WSYNp846uDjrKb0Co-23" value="&lt;u&gt;Acct_no&lt;/u&gt;" style="shape=partialRectangle;html=1;whiteSpace=wrap;connectable=0;strokeColor=inherit;overflow=hidden;fillColor=none;top=0;left=0;bottom=0;right=0;pointerEvents=1;" parent="7E2WSYNp846uDjrKb0Co-22" vertex="1">
          <mxGeometry width="60" height="40" as="geometry">
            <mxRectangle width="60" height="40" as="alternateBounds" />
          </mxGeometry>
        </mxCell>
        <mxCell id="7E2WSYNp846uDjrKb0Co-24" value="Balance" style="shape=partialRectangle;html=1;whiteSpace=wrap;connectable=0;strokeColor=inherit;overflow=hidden;fillColor=none;top=0;left=0;bottom=0;right=0;pointerEvents=1;" parent="7E2WSYNp846uDjrKb0Co-22" vertex="1">
          <mxGeometry x="60" width="60" height="40" as="geometry">
            <mxRectangle width="60" height="40" as="alternateBounds" />
          </mxGeometry>
        </mxCell>
        <mxCell id="7E2WSYNp846uDjrKb0Co-25" value="Type" style="shape=partialRectangle;html=1;whiteSpace=wrap;connectable=0;strokeColor=inherit;overflow=hidden;fillColor=none;top=0;left=0;bottom=0;right=0;pointerEvents=1;" parent="7E2WSYNp846uDjrKb0Co-22" vertex="1">
          <mxGeometry x="120" width="60" height="40" as="geometry">
            <mxRectangle width="60" height="40" as="alternateBounds" />
          </mxGeometry>
        </mxCell>
        <mxCell id="7E2WSYNp846uDjrKb0Co-26" value="&lt;u&gt;Branch_no&lt;/u&gt;" style="shape=partialRectangle;html=1;whiteSpace=wrap;connectable=0;strokeColor=inherit;overflow=hidden;fillColor=none;top=0;left=0;bottom=0;right=0;pointerEvents=1;" parent="7E2WSYNp846uDjrKb0Co-22" vertex="1">
          <mxGeometry x="180" width="60" height="40" as="geometry">
            <mxRectangle width="60" height="40" as="alternateBounds" />
          </mxGeometry>
        </mxCell>
        <mxCell id="7E2WSYNp846uDjrKb0Co-27" value="" style="shape=table;startSize=0;container=1;collapsible=0;childLayout=tableLayout;" parent="1" vertex="1">
          <mxGeometry x="40" y="400" width="240" height="40" as="geometry" />
        </mxCell>
        <mxCell id="7E2WSYNp846uDjrKb0Co-28" value="" style="shape=tableRow;horizontal=0;startSize=0;swimlaneHead=0;swimlaneBody=0;strokeColor=inherit;top=0;left=0;bottom=0;right=0;collapsible=0;dropTarget=0;fillColor=none;points=[[0,0.5],[1,0.5]];portConstraint=eastwest;" parent="7E2WSYNp846uDjrKb0Co-27" vertex="1">
          <mxGeometry width="240" height="40" as="geometry" />
        </mxCell>
        <mxCell id="7E2WSYNp846uDjrKb0Co-29" value="&lt;u&gt;Loan_no&lt;/u&gt;" style="shape=partialRectangle;html=1;whiteSpace=wrap;connectable=0;strokeColor=inherit;overflow=hidden;fillColor=none;top=0;left=0;bottom=0;right=0;pointerEvents=1;" parent="7E2WSYNp846uDjrKb0Co-28" vertex="1">
          <mxGeometry width="60" height="40" as="geometry">
            <mxRectangle width="60" height="40" as="alternateBounds" />
          </mxGeometry>
        </mxCell>
        <mxCell id="7E2WSYNp846uDjrKb0Co-30" value="Amount" style="shape=partialRectangle;html=1;whiteSpace=wrap;connectable=0;strokeColor=inherit;overflow=hidden;fillColor=none;top=0;left=0;bottom=0;right=0;pointerEvents=1;" parent="7E2WSYNp846uDjrKb0Co-28" vertex="1">
          <mxGeometry x="60" width="60" height="40" as="geometry">
            <mxRectangle width="60" height="40" as="alternateBounds" />
          </mxGeometry>
        </mxCell>
        <mxCell id="7E2WSYNp846uDjrKb0Co-31" value="Type" style="shape=partialRectangle;html=1;whiteSpace=wrap;connectable=0;strokeColor=inherit;overflow=hidden;fillColor=none;top=0;left=0;bottom=0;right=0;pointerEvents=1;" parent="7E2WSYNp846uDjrKb0Co-28" vertex="1">
          <mxGeometry x="120" width="60" height="40" as="geometry">
            <mxRectangle width="60" height="40" as="alternateBounds" />
          </mxGeometry>
        </mxCell>
        <mxCell id="7E2WSYNp846uDjrKb0Co-32" value="&lt;u&gt;Branch_no&lt;/u&gt;" style="shape=partialRectangle;html=1;whiteSpace=wrap;connectable=0;strokeColor=inherit;overflow=hidden;fillColor=none;top=0;left=0;bottom=0;right=0;pointerEvents=1;" parent="7E2WSYNp846uDjrKb0Co-28" vertex="1">
          <mxGeometry x="180" width="60" height="40" as="geometry">
            <mxRectangle width="60" height="40" as="alternateBounds" />
          </mxGeometry>
        </mxCell>
        <mxCell id="7E2WSYNp846uDjrKb0Co-33" value="" style="shape=table;startSize=0;container=1;collapsible=0;childLayout=tableLayout;" parent="1" vertex="1">
          <mxGeometry x="40" y="560" width="240" height="40" as="geometry" />
        </mxCell>
        <mxCell id="7E2WSYNp846uDjrKb0Co-34" value="" style="shape=tableRow;horizontal=0;startSize=0;swimlaneHead=0;swimlaneBody=0;strokeColor=inherit;top=0;left=0;bottom=0;right=0;collapsible=0;dropTarget=0;fillColor=none;points=[[0,0.5],[1,0.5]];portConstraint=eastwest;" parent="7E2WSYNp846uDjrKb0Co-33" vertex="1">
          <mxGeometry width="240" height="40" as="geometry" />
        </mxCell>
        <mxCell id="7E2WSYNp846uDjrKb0Co-35" value="&lt;u&gt;Ssn&lt;/u&gt;" style="shape=partialRectangle;html=1;whiteSpace=wrap;connectable=0;strokeColor=inherit;overflow=hidden;fillColor=none;top=0;left=0;bottom=0;right=0;pointerEvents=1;" parent="7E2WSYNp846uDjrKb0Co-34" vertex="1">
          <mxGeometry width="60" height="40" as="geometry">
            <mxRectangle width="60" height="40" as="alternateBounds" />
          </mxGeometry>
        </mxCell>
        <mxCell id="7E2WSYNp846uDjrKb0Co-36" value="Name" style="shape=partialRectangle;html=1;whiteSpace=wrap;connectable=0;strokeColor=inherit;overflow=hidden;fillColor=none;top=0;left=0;bottom=0;right=0;pointerEvents=1;" parent="7E2WSYNp846uDjrKb0Co-34" vertex="1">
          <mxGeometry x="60" width="60" height="40" as="geometry">
            <mxRectangle width="60" height="40" as="alternateBounds" />
          </mxGeometry>
        </mxCell>
        <mxCell id="7E2WSYNp846uDjrKb0Co-37" value="Phone" style="shape=partialRectangle;html=1;whiteSpace=wrap;connectable=0;strokeColor=inherit;overflow=hidden;fillColor=none;top=0;left=0;bottom=0;right=0;pointerEvents=1;" parent="7E2WSYNp846uDjrKb0Co-34" vertex="1">
          <mxGeometry x="120" width="60" height="40" as="geometry">
            <mxRectangle width="60" height="40" as="alternateBounds" />
          </mxGeometry>
        </mxCell>
        <mxCell id="7E2WSYNp846uDjrKb0Co-38" value="Addr" style="shape=partialRectangle;html=1;whiteSpace=wrap;connectable=0;strokeColor=inherit;overflow=hidden;fillColor=none;top=0;left=0;bottom=0;right=0;pointerEvents=1;" parent="7E2WSYNp846uDjrKb0Co-34" vertex="1">
          <mxGeometry x="180" width="60" height="40" as="geometry">
            <mxRectangle width="60" height="40" as="alternateBounds" />
          </mxGeometry>
        </mxCell>
        <mxCell id="7E2WSYNp846uDjrKb0Co-39" value="&lt;font style=&quot;font-size: 16px;&quot;&gt;&lt;b&gt;A_C&lt;/b&gt;&lt;/font&gt;" style="text;html=1;align=center;verticalAlign=middle;resizable=0;points=[];autosize=1;strokeColor=none;fillColor=none;" parent="1" vertex="1">
          <mxGeometry x="430" y="300" width="60" height="30" as="geometry" />
        </mxCell>
        <mxCell id="7E2WSYNp846uDjrKb0Co-40" value="&lt;font style=&quot;font-size: 16px;&quot;&gt;&lt;b&gt;L_C&lt;/b&gt;&lt;/font&gt;" style="text;html=1;align=center;verticalAlign=middle;resizable=0;points=[];autosize=1;strokeColor=none;fillColor=none;" parent="1" vertex="1">
          <mxGeometry x="435" y="460" width="50" height="30" as="geometry" />
        </mxCell>
        <mxCell id="7E2WSYNp846uDjrKb0Co-41" value="" style="shape=table;startSize=0;container=1;collapsible=0;childLayout=tableLayout;" parent="1" vertex="1">
          <mxGeometry x="440" y="340" width="120" height="40" as="geometry" />
        </mxCell>
        <mxCell id="7E2WSYNp846uDjrKb0Co-42" value="" style="shape=tableRow;horizontal=0;startSize=0;swimlaneHead=0;swimlaneBody=0;strokeColor=inherit;top=0;left=0;bottom=0;right=0;collapsible=0;dropTarget=0;fillColor=none;points=[[0,0.5],[1,0.5]];portConstraint=eastwest;" parent="7E2WSYNp846uDjrKb0Co-41" vertex="1">
          <mxGeometry width="120" height="40" as="geometry" />
        </mxCell>
        <mxCell id="7E2WSYNp846uDjrKb0Co-43" value="&lt;u&gt;Acct_no&lt;/u&gt;" style="shape=partialRectangle;html=1;whiteSpace=wrap;connectable=0;strokeColor=inherit;overflow=hidden;fillColor=none;top=0;left=0;bottom=0;right=0;pointerEvents=1;" parent="7E2WSYNp846uDjrKb0Co-42" vertex="1">
          <mxGeometry width="60" height="40" as="geometry">
            <mxRectangle width="60" height="40" as="alternateBounds" />
          </mxGeometry>
        </mxCell>
        <mxCell id="7E2WSYNp846uDjrKb0Co-44" value="&lt;u&gt;Ssn&lt;/u&gt;" style="shape=partialRectangle;html=1;whiteSpace=wrap;connectable=0;strokeColor=inherit;overflow=hidden;fillColor=none;top=0;left=0;bottom=0;right=0;pointerEvents=1;" parent="7E2WSYNp846uDjrKb0Co-42" vertex="1">
          <mxGeometry x="60" width="60" height="40" as="geometry">
            <mxRectangle width="60" height="40" as="alternateBounds" />
          </mxGeometry>
        </mxCell>
        <mxCell id="7E2WSYNp846uDjrKb0Co-45" value="" style="shape=table;startSize=0;container=1;collapsible=0;childLayout=tableLayout;" parent="1" vertex="1">
          <mxGeometry x="440" y="500" width="120" height="40" as="geometry" />
        </mxCell>
        <mxCell id="7E2WSYNp846uDjrKb0Co-46" value="" style="shape=tableRow;horizontal=0;startSize=0;swimlaneHead=0;swimlaneBody=0;strokeColor=inherit;top=0;left=0;bottom=0;right=0;collapsible=0;dropTarget=0;fillColor=none;points=[[0,0.5],[1,0.5]];portConstraint=eastwest;" parent="7E2WSYNp846uDjrKb0Co-45" vertex="1">
          <mxGeometry width="120" height="40" as="geometry" />
        </mxCell>
        <mxCell id="7E2WSYNp846uDjrKb0Co-47" value="&lt;u&gt;Loan_no&lt;/u&gt;" style="shape=partialRectangle;html=1;whiteSpace=wrap;connectable=0;strokeColor=inherit;overflow=hidden;fillColor=none;top=0;left=0;bottom=0;right=0;pointerEvents=1;" parent="7E2WSYNp846uDjrKb0Co-46" vertex="1">
          <mxGeometry width="60" height="40" as="geometry">
            <mxRectangle width="60" height="40" as="alternateBounds" />
          </mxGeometry>
        </mxCell>
        <mxCell id="7E2WSYNp846uDjrKb0Co-48" value="&lt;u&gt;Ssn&lt;/u&gt;" style="shape=partialRectangle;html=1;whiteSpace=wrap;connectable=0;strokeColor=inherit;overflow=hidden;fillColor=none;top=0;left=0;bottom=0;right=0;pointerEvents=1;" parent="7E2WSYNp846uDjrKb0Co-46" vertex="1">
          <mxGeometry x="60" width="60" height="40" as="geometry">
            <mxRectangle width="60" height="40" as="alternateBounds" />
          </mxGeometry>
        </mxCell>
        <mxCell id="7E2WSYNp846uDjrKb0Co-49" value="&lt;font style=&quot;font-size: 14px;&quot;&gt;FK&lt;/font&gt;" style="text;html=1;align=center;verticalAlign=middle;resizable=0;points=[];autosize=1;strokeColor=none;fillColor=none;" parent="1" vertex="1">
          <mxGeometry x="450" y="378" width="40" height="30" as="geometry" />
        </mxCell>
        <mxCell id="7E2WSYNp846uDjrKb0Co-50" value="&lt;font style=&quot;font-size: 14px;&quot;&gt;FK&lt;/font&gt;" style="text;html=1;align=center;verticalAlign=middle;resizable=0;points=[];autosize=1;strokeColor=none;fillColor=none;" parent="1" vertex="1">
          <mxGeometry x="510" y="380" width="40" height="30" as="geometry" />
        </mxCell>
        <mxCell id="7E2WSYNp846uDjrKb0Co-51" value="&lt;font style=&quot;font-size: 14px;&quot;&gt;FK&lt;/font&gt;" style="text;html=1;align=center;verticalAlign=middle;resizable=0;points=[];autosize=1;strokeColor=none;fillColor=none;" parent="1" vertex="1">
          <mxGeometry x="450" y="540" width="40" height="30" as="geometry" />
        </mxCell>
        <mxCell id="7E2WSYNp846uDjrKb0Co-52" value="&lt;font style=&quot;font-size: 14px;&quot;&gt;FK&lt;/font&gt;" style="text;html=1;align=center;verticalAlign=middle;resizable=0;points=[];autosize=1;strokeColor=none;fillColor=none;" parent="1" vertex="1">
          <mxGeometry x="510" y="540" width="40" height="30" as="geometry" />
        </mxCell>
        <mxCell id="7E2WSYNp846uDjrKb0Co-53" value="&lt;font style=&quot;font-size: 14px;&quot;&gt;FK&lt;/font&gt;" style="text;html=1;align=center;verticalAlign=middle;resizable=0;points=[];autosize=1;strokeColor=none;fillColor=none;" parent="1" vertex="1">
          <mxGeometry x="230" y="278" width="40" height="30" as="geometry" />
        </mxCell>
        <mxCell id="7E2WSYNp846uDjrKb0Co-54" value="&lt;font style=&quot;font-size: 14px;&quot;&gt;FK&lt;/font&gt;" style="text;html=1;align=center;verticalAlign=middle;resizable=0;points=[];autosize=1;strokeColor=none;fillColor=none;" parent="1" vertex="1">
          <mxGeometry x="230" y="440" width="40" height="30" as="geometry" />
        </mxCell>
        <mxCell id="7E2WSYNp846uDjrKb0Co-55" value="&lt;font style=&quot;font-size: 14px;&quot;&gt;FK&lt;/font&gt;" style="text;html=1;align=center;verticalAlign=middle;resizable=0;points=[];autosize=1;strokeColor=none;fillColor=none;" parent="1" vertex="1">
          <mxGeometry x="110" y="760" width="40" height="30" as="geometry" />
        </mxCell>
        <mxCell id="7E2WSYNp846uDjrKb0Co-56" value="&lt;font style=&quot;font-size: 14px;&quot;&gt;PK&lt;/font&gt;" style="text;html=1;align=center;verticalAlign=middle;resizable=0;points=[];autosize=1;strokeColor=none;fillColor=none;" parent="1" vertex="1">
          <mxGeometry x="47" y="760" width="40" height="30" as="geometry" />
        </mxCell>
        <mxCell id="7E2WSYNp846uDjrKb0Co-57" value="&lt;font style=&quot;font-size: 14px;&quot;&gt;PK&lt;/font&gt;" style="text;html=1;align=center;verticalAlign=middle;resizable=0;points=[];autosize=1;strokeColor=none;fillColor=none;" parent="1" vertex="1">
          <mxGeometry x="47" y="600" width="40" height="30" as="geometry" />
        </mxCell>
        <mxCell id="7E2WSYNp846uDjrKb0Co-58" value="&lt;font style=&quot;font-size: 14px;&quot;&gt;PK&lt;/font&gt;" style="text;html=1;align=center;verticalAlign=middle;resizable=0;points=[];autosize=1;strokeColor=none;fillColor=none;" parent="1" vertex="1">
          <mxGeometry x="47" y="443" width="40" height="30" as="geometry" />
        </mxCell>
        <mxCell id="7E2WSYNp846uDjrKb0Co-59" value="&lt;font style=&quot;font-size: 14px;&quot;&gt;PK&lt;/font&gt;" style="text;html=1;align=center;verticalAlign=middle;resizable=0;points=[];autosize=1;strokeColor=none;fillColor=none;" parent="1" vertex="1">
          <mxGeometry x="47" y="280" width="40" height="30" as="geometry" />
        </mxCell>
        <mxCell id="7E2WSYNp846uDjrKb0Co-60" value="&lt;font style=&quot;font-size: 14px;&quot;&gt;PK&lt;/font&gt;" style="text;html=1;align=center;verticalAlign=middle;resizable=0;points=[];autosize=1;strokeColor=none;fillColor=none;" parent="1" vertex="1">
          <mxGeometry x="45" y="120" width="40" height="30" as="geometry" />
        </mxCell>
      </root>
    </mxGraphModel>
  </diagram>
  <diagram id="xRqGqIZdK0KByyZ0TIjm" name="Page-2">
    <mxGraphModel dx="1042" dy="651" grid="1" gridSize="10" guides="1" tooltips="1" connect="1" arrows="1" fold="1" page="1" pageScale="1" pageWidth="850" pageHeight="1100" math="0" shadow="0">
      <root>
        <mxCell id="0" />
        <mxCell id="1" parent="0" />
        <mxCell id="x8WJQy2ajxWDSdKPgTCx-1" value="BOOK" style="rounded=0;whiteSpace=wrap;html=1;" parent="1" vertex="1">
          <mxGeometry x="365" y="370" width="120" height="60" as="geometry" />
        </mxCell>
        <mxCell id="x8WJQy2ajxWDSdKPgTCx-2" value="PUBLISHER" style="rounded=0;whiteSpace=wrap;html=1;" parent="1" vertex="1">
          <mxGeometry x="154" y="130" width="120" height="60" as="geometry" />
        </mxCell>
        <mxCell id="x8WJQy2ajxWDSdKPgTCx-4" value="LIBRARY_BRANCH" style="rounded=0;whiteSpace=wrap;html=1;" parent="1" vertex="1">
          <mxGeometry x="153.25" y="611" width="120" height="60" as="geometry" />
        </mxCell>
        <mxCell id="x8WJQy2ajxWDSdKPgTCx-6" value="published by" style="rhombus;whiteSpace=wrap;html=1;" parent="1" vertex="1">
          <mxGeometry x="170.5" y="270" width="87.5" height="90" as="geometry" />
        </mxCell>
        <mxCell id="x8WJQy2ajxWDSdKPgTCx-7" value="&lt;font style=&quot;font-size: 11px;&quot;&gt;BOOK_COPIES&lt;/font&gt;" style="rhombus;whiteSpace=wrap;html=1;" parent="1" vertex="1">
          <mxGeometry x="169.5" y="441" width="87.5" height="90" as="geometry" />
        </mxCell>
        <mxCell id="x8WJQy2ajxWDSdKPgTCx-8" value="&lt;font style=&quot;font-size: 11px;&quot;&gt;BOOK_LOANS&lt;/font&gt;" style="rhombus;whiteSpace=wrap;html=1;" parent="1" vertex="1">
          <mxGeometry x="580.5" y="442.5" width="95" height="95" as="geometry" />
        </mxCell>
        <mxCell id="x8WJQy2ajxWDSdKPgTCx-9" value="BORROWER" style="rounded=0;whiteSpace=wrap;html=1;" parent="1" vertex="1">
          <mxGeometry x="568" y="619" width="120" height="60" as="geometry" />
        </mxCell>
        <mxCell id="x8WJQy2ajxWDSdKPgTCx-10" value="&lt;u&gt;Name&lt;/u&gt;" style="ellipse;whiteSpace=wrap;html=1;" parent="1" vertex="1">
          <mxGeometry x="94.25" y="80" width="60" height="30" as="geometry" />
        </mxCell>
        <mxCell id="x8WJQy2ajxWDSdKPgTCx-11" value="Address" style="ellipse;whiteSpace=wrap;html=1;" parent="1" vertex="1">
          <mxGeometry x="184.25" y="80" width="60" height="30" as="geometry" />
        </mxCell>
        <mxCell id="x8WJQy2ajxWDSdKPgTCx-12" value="Phone" style="ellipse;whiteSpace=wrap;html=1;" parent="1" vertex="1">
          <mxGeometry x="268" y="80" width="60" height="30" as="geometry" />
        </mxCell>
        <mxCell id="x8WJQy2ajxWDSdKPgTCx-13" value="&lt;u&gt;Author_name&lt;/u&gt;" style="ellipse;whiteSpace=wrap;html=1;" parent="1" vertex="1">
          <mxGeometry x="578" y="80" width="100" height="30" as="geometry" />
        </mxCell>
        <mxCell id="x8WJQy2ajxWDSdKPgTCx-14" value="&lt;u&gt;Book_id&lt;/u&gt;" style="ellipse;whiteSpace=wrap;html=1;" parent="1" vertex="1">
          <mxGeometry x="440" y="330" width="60" height="30" as="geometry" />
        </mxCell>
        <mxCell id="x8WJQy2ajxWDSdKPgTCx-15" value="Title" style="ellipse;whiteSpace=wrap;html=1;" parent="1" vertex="1">
          <mxGeometry x="395" y="440" width="60" height="30" as="geometry" />
        </mxCell>
        <mxCell id="x8WJQy2ajxWDSdKPgTCx-16" value="" style="endArrow=none;html=1;rounded=0;exitX=0.5;exitY=0;exitDx=0;exitDy=0;entryX=0.5;entryY=1;entryDx=0;entryDy=0;" parent="1" source="x8WJQy2ajxWDSdKPgTCx-1" target="x8WJQy2ajxWDSdKPgTCx-14" edge="1">
          <mxGeometry width="50" height="50" relative="1" as="geometry">
            <mxPoint x="410" y="280" as="sourcePoint" />
            <mxPoint x="420" y="340" as="targetPoint" />
          </mxGeometry>
        </mxCell>
        <mxCell id="x8WJQy2ajxWDSdKPgTCx-17" value="" style="endArrow=none;html=1;rounded=0;exitX=0.5;exitY=0;exitDx=0;exitDy=0;entryX=0.5;entryY=1;entryDx=0;entryDy=0;" parent="1" source="x8WJQy2ajxWDSdKPgTCx-15" target="x8WJQy2ajxWDSdKPgTCx-1" edge="1">
          <mxGeometry width="50" height="50" relative="1" as="geometry">
            <mxPoint x="488" y="486" as="sourcePoint" />
            <mxPoint x="488" y="456" as="targetPoint" />
          </mxGeometry>
        </mxCell>
        <mxCell id="x8WJQy2ajxWDSdKPgTCx-18" value="&lt;u&gt;Branch_id&lt;/u&gt;" style="ellipse;whiteSpace=wrap;html=1;" parent="1" vertex="1">
          <mxGeometry x="87" y="692" width="60" height="30" as="geometry" />
        </mxCell>
        <mxCell id="x8WJQy2ajxWDSdKPgTCx-19" value="Branch_name" style="ellipse;whiteSpace=wrap;html=1;" parent="1" vertex="1">
          <mxGeometry x="167" y="692" width="92.5" height="30" as="geometry" />
        </mxCell>
        <mxCell id="x8WJQy2ajxWDSdKPgTCx-20" value="Address" style="ellipse;whiteSpace=wrap;html=1;" parent="1" vertex="1">
          <mxGeometry x="277" y="692" width="60" height="30" as="geometry" />
        </mxCell>
        <mxCell id="x8WJQy2ajxWDSdKPgTCx-21" value="" style="endArrow=none;html=1;rounded=0;exitX=0.5;exitY=0;exitDx=0;exitDy=0;entryX=0.5;entryY=1;entryDx=0;entryDy=0;" parent="1" source="x8WJQy2ajxWDSdKPgTCx-19" target="x8WJQy2ajxWDSdKPgTCx-4" edge="1">
          <mxGeometry width="50" height="50" relative="1" as="geometry">
            <mxPoint x="437" y="532" as="sourcePoint" />
            <mxPoint x="487" y="482" as="targetPoint" />
          </mxGeometry>
        </mxCell>
        <mxCell id="x8WJQy2ajxWDSdKPgTCx-22" value="" style="endArrow=none;html=1;rounded=0;exitX=0.5;exitY=0;exitDx=0;exitDy=0;entryX=0.5;entryY=1;entryDx=0;entryDy=0;" parent="1" source="x8WJQy2ajxWDSdKPgTCx-18" target="x8WJQy2ajxWDSdKPgTCx-4" edge="1">
          <mxGeometry width="50" height="50" relative="1" as="geometry">
            <mxPoint x="133" y="742" as="sourcePoint" />
            <mxPoint x="223" y="681" as="targetPoint" />
          </mxGeometry>
        </mxCell>
        <mxCell id="x8WJQy2ajxWDSdKPgTCx-23" value="" style="endArrow=none;html=1;rounded=0;exitX=0.5;exitY=0;exitDx=0;exitDy=0;entryX=0.5;entryY=1;entryDx=0;entryDy=0;" parent="1" source="x8WJQy2ajxWDSdKPgTCx-20" target="x8WJQy2ajxWDSdKPgTCx-4" edge="1">
          <mxGeometry width="50" height="50" relative="1" as="geometry">
            <mxPoint x="223" y="742" as="sourcePoint" />
            <mxPoint x="223" y="681" as="targetPoint" />
          </mxGeometry>
        </mxCell>
        <mxCell id="x8WJQy2ajxWDSdKPgTCx-24" value="&lt;u&gt;Card_no&lt;/u&gt;" style="ellipse;whiteSpace=wrap;html=1;" parent="1" vertex="1">
          <mxGeometry x="488" y="702" width="60" height="30" as="geometry" />
        </mxCell>
        <mxCell id="x8WJQy2ajxWDSdKPgTCx-26" value="Address" style="ellipse;whiteSpace=wrap;html=1;" parent="1" vertex="1">
          <mxGeometry x="568" y="702" width="60" height="30" as="geometry" />
        </mxCell>
        <mxCell id="x8WJQy2ajxWDSdKPgTCx-27" value="Name" style="ellipse;whiteSpace=wrap;html=1;" parent="1" vertex="1">
          <mxGeometry x="648" y="702" width="60" height="30" as="geometry" />
        </mxCell>
        <mxCell id="x8WJQy2ajxWDSdKPgTCx-28" value="Phone" style="ellipse;whiteSpace=wrap;html=1;" parent="1" vertex="1">
          <mxGeometry x="728" y="702" width="60" height="30" as="geometry" />
        </mxCell>
        <mxCell id="x8WJQy2ajxWDSdKPgTCx-29" value="" style="endArrow=none;html=1;rounded=0;exitX=0.5;exitY=1;exitDx=0;exitDy=0;entryX=0.5;entryY=0;entryDx=0;entryDy=0;" parent="1" source="x8WJQy2ajxWDSdKPgTCx-9" target="x8WJQy2ajxWDSdKPgTCx-24" edge="1">
          <mxGeometry width="50" height="50" relative="1" as="geometry">
            <mxPoint x="268" y="746" as="sourcePoint" />
            <mxPoint x="174" y="685" as="targetPoint" />
          </mxGeometry>
        </mxCell>
        <mxCell id="x8WJQy2ajxWDSdKPgTCx-31" value="" style="endArrow=none;html=1;rounded=0;exitX=0.5;exitY=1;exitDx=0;exitDy=0;entryX=0.5;entryY=0;entryDx=0;entryDy=0;" parent="1" source="x8WJQy2ajxWDSdKPgTCx-9" target="x8WJQy2ajxWDSdKPgTCx-26" edge="1">
          <mxGeometry width="50" height="50" relative="1" as="geometry">
            <mxPoint x="638" y="689" as="sourcePoint" />
            <mxPoint x="528" y="746" as="targetPoint" />
          </mxGeometry>
        </mxCell>
        <mxCell id="x8WJQy2ajxWDSdKPgTCx-32" value="" style="endArrow=none;html=1;rounded=0;exitX=0.5;exitY=1;exitDx=0;exitDy=0;entryX=0.5;entryY=0;entryDx=0;entryDy=0;" parent="1" source="x8WJQy2ajxWDSdKPgTCx-9" target="x8WJQy2ajxWDSdKPgTCx-27" edge="1">
          <mxGeometry width="50" height="50" relative="1" as="geometry">
            <mxPoint x="638" y="689" as="sourcePoint" />
            <mxPoint x="608" y="746" as="targetPoint" />
          </mxGeometry>
        </mxCell>
        <mxCell id="x8WJQy2ajxWDSdKPgTCx-33" value="" style="endArrow=none;html=1;rounded=0;entryX=0.5;entryY=0;entryDx=0;entryDy=0;exitX=0.5;exitY=1;exitDx=0;exitDy=0;" parent="1" source="x8WJQy2ajxWDSdKPgTCx-9" target="x8WJQy2ajxWDSdKPgTCx-28" edge="1">
          <mxGeometry width="50" height="50" relative="1" as="geometry">
            <mxPoint x="628" y="676" as="sourcePoint" />
            <mxPoint x="688" y="746" as="targetPoint" />
          </mxGeometry>
        </mxCell>
        <mxCell id="x8WJQy2ajxWDSdKPgTCx-34" value="" style="endArrow=none;html=1;rounded=0;entryX=0.5;entryY=1;entryDx=0;entryDy=0;exitX=0.5;exitY=0;exitDx=0;exitDy=0;" parent="1" source="x8WJQy2ajxWDSdKPgTCx-2" target="x8WJQy2ajxWDSdKPgTCx-12" edge="1">
          <mxGeometry width="50" height="50" relative="1" as="geometry">
            <mxPoint x="438" y="240" as="sourcePoint" />
            <mxPoint x="488" y="190" as="targetPoint" />
          </mxGeometry>
        </mxCell>
        <mxCell id="x8WJQy2ajxWDSdKPgTCx-35" value="" style="endArrow=none;html=1;rounded=0;entryX=0.5;entryY=1;entryDx=0;entryDy=0;exitX=0.5;exitY=0;exitDx=0;exitDy=0;" parent="1" source="x8WJQy2ajxWDSdKPgTCx-2" target="x8WJQy2ajxWDSdKPgTCx-11" edge="1">
          <mxGeometry width="50" height="50" relative="1" as="geometry">
            <mxPoint x="228" y="140" as="sourcePoint" />
            <mxPoint x="308" y="100" as="targetPoint" />
          </mxGeometry>
        </mxCell>
        <mxCell id="x8WJQy2ajxWDSdKPgTCx-36" value="" style="endArrow=none;html=1;rounded=0;entryX=0.5;entryY=1;entryDx=0;entryDy=0;exitX=0.5;exitY=0;exitDx=0;exitDy=0;" parent="1" source="x8WJQy2ajxWDSdKPgTCx-2" target="x8WJQy2ajxWDSdKPgTCx-10" edge="1">
          <mxGeometry width="50" height="50" relative="1" as="geometry">
            <mxPoint x="228" y="140" as="sourcePoint" />
            <mxPoint x="224" y="100" as="targetPoint" />
          </mxGeometry>
        </mxCell>
        <mxCell id="x8WJQy2ajxWDSdKPgTCx-37" value="" style="endArrow=none;html=1;rounded=0;entryX=0.5;entryY=0;entryDx=0;entryDy=0;exitX=0.5;exitY=1;exitDx=0;exitDy=0;" parent="1" source="x8WJQy2ajxWDSdKPgTCx-13" target="x8WJQy2ajxWDSdKPgTCx-55" edge="1">
          <mxGeometry width="50" height="50" relative="1" as="geometry">
            <mxPoint x="178" y="140" as="sourcePoint" />
            <mxPoint x="628" y="130" as="targetPoint" />
          </mxGeometry>
        </mxCell>
        <mxCell id="x8WJQy2ajxWDSdKPgTCx-38" value="Date_out" style="ellipse;whiteSpace=wrap;html=1;" parent="1" vertex="1">
          <mxGeometry x="690" y="450" width="60" height="30" as="geometry" />
        </mxCell>
        <mxCell id="x8WJQy2ajxWDSdKPgTCx-39" value="Due_date" style="ellipse;whiteSpace=wrap;html=1;" parent="1" vertex="1">
          <mxGeometry x="690" y="501" width="60" height="30" as="geometry" />
        </mxCell>
        <mxCell id="x8WJQy2ajxWDSdKPgTCx-40" value="No_of_copies" style="ellipse;whiteSpace=wrap;html=1;" parent="1" vertex="1">
          <mxGeometry x="50" y="471" width="110" height="30" as="geometry" />
        </mxCell>
        <mxCell id="x8WJQy2ajxWDSdKPgTCx-41" value="" style="endArrow=none;html=1;rounded=0;exitX=0;exitY=0.5;exitDx=0;exitDy=0;entryX=1;entryY=0.5;entryDx=0;entryDy=0;" parent="1" source="x8WJQy2ajxWDSdKPgTCx-38" target="x8WJQy2ajxWDSdKPgTCx-8" edge="1">
          <mxGeometry width="50" height="50" relative="1" as="geometry">
            <mxPoint x="268" y="746" as="sourcePoint" />
            <mxPoint x="174" y="685" as="targetPoint" />
          </mxGeometry>
        </mxCell>
        <mxCell id="x8WJQy2ajxWDSdKPgTCx-42" value="" style="endArrow=none;html=1;rounded=0;exitX=0;exitY=0.5;exitDx=0;exitDy=0;entryX=1;entryY=0.5;entryDx=0;entryDy=0;" parent="1" source="x8WJQy2ajxWDSdKPgTCx-39" target="x8WJQy2ajxWDSdKPgTCx-8" edge="1">
          <mxGeometry width="50" height="50" relative="1" as="geometry">
            <mxPoint x="738" y="451" as="sourcePoint" />
            <mxPoint x="686" y="507" as="targetPoint" />
          </mxGeometry>
        </mxCell>
        <mxCell id="x8WJQy2ajxWDSdKPgTCx-43" value="" style="endArrow=none;html=1;rounded=0;exitX=0;exitY=0.5;exitDx=0;exitDy=0;entryX=1;entryY=0.5;entryDx=0;entryDy=0;" parent="1" source="x8WJQy2ajxWDSdKPgTCx-7" target="x8WJQy2ajxWDSdKPgTCx-40" edge="1">
          <mxGeometry width="50" height="50" relative="1" as="geometry">
            <mxPoint x="787" y="556" as="sourcePoint" />
            <mxPoint x="735" y="503" as="targetPoint" />
          </mxGeometry>
        </mxCell>
        <mxCell id="x8WJQy2ajxWDSdKPgTCx-45" value="" style="endArrow=none;html=1;rounded=0;entryX=1;entryY=0.5;entryDx=0;entryDy=0;exitX=0.5;exitY=0;exitDx=0;exitDy=0;" parent="1" source="x8WJQy2ajxWDSdKPgTCx-8" target="x8WJQy2ajxWDSdKPgTCx-1" edge="1">
          <mxGeometry relative="1" as="geometry">
            <mxPoint x="360" y="560" as="sourcePoint" />
            <mxPoint x="520" y="560" as="targetPoint" />
          </mxGeometry>
        </mxCell>
        <mxCell id="x8WJQy2ajxWDSdKPgTCx-46" value="N" style="resizable=0;html=1;whiteSpace=wrap;align=right;verticalAlign=bottom;" parent="x8WJQy2ajxWDSdKPgTCx-45" connectable="0" vertex="1">
          <mxGeometry x="1" relative="1" as="geometry">
            <mxPoint x="15" y="30" as="offset" />
          </mxGeometry>
        </mxCell>
        <mxCell id="x8WJQy2ajxWDSdKPgTCx-47" value="" style="endArrow=none;html=1;rounded=0;entryX=0.5;entryY=0;entryDx=0;entryDy=0;exitX=0.5;exitY=1;exitDx=0;exitDy=0;" parent="1" source="x8WJQy2ajxWDSdKPgTCx-8" target="x8WJQy2ajxWDSdKPgTCx-4" edge="1">
          <mxGeometry relative="1" as="geometry">
            <mxPoint x="591" y="541" as="sourcePoint" />
            <mxPoint x="495" y="410" as="targetPoint" />
          </mxGeometry>
        </mxCell>
        <mxCell id="x8WJQy2ajxWDSdKPgTCx-48" value="N" style="resizable=0;html=1;whiteSpace=wrap;align=right;verticalAlign=bottom;" parent="x8WJQy2ajxWDSdKPgTCx-47" connectable="0" vertex="1">
          <mxGeometry x="1" relative="1" as="geometry" />
        </mxCell>
        <mxCell id="x8WJQy2ajxWDSdKPgTCx-49" value="" style="endArrow=none;html=1;rounded=0;entryX=0.5;entryY=0;entryDx=0;entryDy=0;exitX=0.5;exitY=1;exitDx=0;exitDy=0;" parent="1" source="x8WJQy2ajxWDSdKPgTCx-8" target="x8WJQy2ajxWDSdKPgTCx-9" edge="1">
          <mxGeometry relative="1" as="geometry">
            <mxPoint x="591" y="507" as="sourcePoint" />
            <mxPoint x="223" y="625" as="targetPoint" />
          </mxGeometry>
        </mxCell>
        <mxCell id="x8WJQy2ajxWDSdKPgTCx-50" value="N" style="resizable=0;html=1;whiteSpace=wrap;align=right;verticalAlign=bottom;" parent="x8WJQy2ajxWDSdKPgTCx-49" connectable="0" vertex="1">
          <mxGeometry x="1" relative="1" as="geometry" />
        </mxCell>
        <mxCell id="x8WJQy2ajxWDSdKPgTCx-51" value="" style="endArrow=none;html=1;rounded=0;entryX=0.5;entryY=0;entryDx=0;entryDy=0;exitX=0.5;exitY=1;exitDx=0;exitDy=0;" parent="1" source="x8WJQy2ajxWDSdKPgTCx-7" target="x8WJQy2ajxWDSdKPgTCx-4" edge="1">
          <mxGeometry relative="1" as="geometry">
            <mxPoint x="638" y="544" as="sourcePoint" />
            <mxPoint x="223" y="621" as="targetPoint" />
          </mxGeometry>
        </mxCell>
        <mxCell id="x8WJQy2ajxWDSdKPgTCx-52" value="N" style="resizable=0;html=1;whiteSpace=wrap;align=right;verticalAlign=bottom;" parent="x8WJQy2ajxWDSdKPgTCx-51" connectable="0" vertex="1">
          <mxGeometry x="1" relative="1" as="geometry">
            <mxPoint x="31" y="-9" as="offset" />
          </mxGeometry>
        </mxCell>
        <mxCell id="x8WJQy2ajxWDSdKPgTCx-53" value="" style="endArrow=none;html=1;rounded=0;entryX=0;entryY=0.5;entryDx=0;entryDy=0;exitX=0.5;exitY=0;exitDx=0;exitDy=0;" parent="1" source="x8WJQy2ajxWDSdKPgTCx-7" target="x8WJQy2ajxWDSdKPgTCx-1" edge="1">
          <mxGeometry relative="1" as="geometry">
            <mxPoint x="638" y="487" as="sourcePoint" />
            <mxPoint x="495" y="410" as="targetPoint" />
          </mxGeometry>
        </mxCell>
        <mxCell id="x8WJQy2ajxWDSdKPgTCx-54" value="N" style="resizable=0;html=1;whiteSpace=wrap;align=right;verticalAlign=bottom;" parent="x8WJQy2ajxWDSdKPgTCx-53" connectable="0" vertex="1">
          <mxGeometry x="1" relative="1" as="geometry">
            <mxPoint x="-4" y="30" as="offset" />
          </mxGeometry>
        </mxCell>
        <mxCell id="x8WJQy2ajxWDSdKPgTCx-55" value="BOOK_AUTHORS" style="shape=ext;margin=3;double=1;whiteSpace=wrap;html=1;align=center;" parent="1" vertex="1">
          <mxGeometry x="566" y="132" width="124" height="60" as="geometry" />
        </mxCell>
        <mxCell id="x8WJQy2ajxWDSdKPgTCx-57" value="written by" style="shape=rhombus;double=1;perimeter=rhombusPerimeter;whiteSpace=wrap;html=1;align=center;" parent="1" vertex="1">
          <mxGeometry x="568" y="285" width="120" height="60" as="geometry" />
        </mxCell>
        <mxCell id="x8WJQy2ajxWDSdKPgTCx-59" value="" style="shape=link;html=1;rounded=0;entryX=1;entryY=0.5;entryDx=0;entryDy=0;exitX=0.5;exitY=1;exitDx=0;exitDy=0;" parent="1" source="x8WJQy2ajxWDSdKPgTCx-57" target="x8WJQy2ajxWDSdKPgTCx-1" edge="1">
          <mxGeometry relative="1" as="geometry">
            <mxPoint x="360" y="470" as="sourcePoint" />
            <mxPoint x="520" y="470" as="targetPoint" />
          </mxGeometry>
        </mxCell>
        <mxCell id="x8WJQy2ajxWDSdKPgTCx-60" value="1" style="resizable=0;html=1;whiteSpace=wrap;align=right;verticalAlign=bottom;" parent="x8WJQy2ajxWDSdKPgTCx-59" connectable="0" vertex="1">
          <mxGeometry x="1" relative="1" as="geometry">
            <mxPoint x="15" y="-10" as="offset" />
          </mxGeometry>
        </mxCell>
        <mxCell id="x8WJQy2ajxWDSdKPgTCx-61" value="" style="endArrow=none;html=1;rounded=0;entryX=0.5;entryY=1;entryDx=0;entryDy=0;exitX=0.5;exitY=0;exitDx=0;exitDy=0;" parent="1" source="x8WJQy2ajxWDSdKPgTCx-57" target="x8WJQy2ajxWDSdKPgTCx-55" edge="1">
          <mxGeometry relative="1" as="geometry">
            <mxPoint x="360" y="320" as="sourcePoint" />
            <mxPoint x="520" y="320" as="targetPoint" />
          </mxGeometry>
        </mxCell>
        <mxCell id="x8WJQy2ajxWDSdKPgTCx-62" value="N" style="resizable=0;html=1;whiteSpace=wrap;align=right;verticalAlign=bottom;" parent="x8WJQy2ajxWDSdKPgTCx-61" connectable="0" vertex="1">
          <mxGeometry x="1" relative="1" as="geometry">
            <mxPoint y="18" as="offset" />
          </mxGeometry>
        </mxCell>
        <mxCell id="x8WJQy2ajxWDSdKPgTCx-63" value="" style="shape=link;html=1;rounded=0;exitX=0.5;exitY=1;exitDx=0;exitDy=0;entryX=0;entryY=0.5;entryDx=0;entryDy=0;" parent="1" source="x8WJQy2ajxWDSdKPgTCx-6" target="x8WJQy2ajxWDSdKPgTCx-1" edge="1">
          <mxGeometry relative="1" as="geometry">
            <mxPoint x="360" y="280" as="sourcePoint" />
            <mxPoint x="520" y="280" as="targetPoint" />
          </mxGeometry>
        </mxCell>
        <mxCell id="x8WJQy2ajxWDSdKPgTCx-64" value="N" style="resizable=0;html=1;whiteSpace=wrap;align=right;verticalAlign=bottom;" parent="x8WJQy2ajxWDSdKPgTCx-63" connectable="0" vertex="1">
          <mxGeometry x="1" relative="1" as="geometry">
            <mxPoint y="-10" as="offset" />
          </mxGeometry>
        </mxCell>
        <mxCell id="x8WJQy2ajxWDSdKPgTCx-65" value="" style="endArrow=none;html=1;rounded=0;exitX=0.5;exitY=0;exitDx=0;exitDy=0;entryX=0.5;entryY=1;entryDx=0;entryDy=0;" parent="1" source="x8WJQy2ajxWDSdKPgTCx-6" target="x8WJQy2ajxWDSdKPgTCx-2" edge="1">
          <mxGeometry relative="1" as="geometry">
            <mxPoint x="360" y="320" as="sourcePoint" />
            <mxPoint x="520" y="320" as="targetPoint" />
          </mxGeometry>
        </mxCell>
        <mxCell id="x8WJQy2ajxWDSdKPgTCx-66" value="1" style="resizable=0;html=1;whiteSpace=wrap;align=right;verticalAlign=bottom;" parent="x8WJQy2ajxWDSdKPgTCx-65" connectable="0" vertex="1">
          <mxGeometry x="1" relative="1" as="geometry">
            <mxPoint x="-4" y="20" as="offset" />
          </mxGeometry>
        </mxCell>
        <mxCell id="8_3eRjNjorTgoT3pwRIV-1" value="Publisher_name" style="ellipse;whiteSpace=wrap;html=1;align=center;dashed=1;" vertex="1" parent="1">
          <mxGeometry x="320" y="330" width="100" height="30" as="geometry" />
        </mxCell>
        <mxCell id="8_3eRjNjorTgoT3pwRIV-2" value="" style="endArrow=none;html=1;rounded=0;exitX=0.5;exitY=0;exitDx=0;exitDy=0;entryX=0.5;entryY=1;entryDx=0;entryDy=0;" edge="1" parent="1" source="x8WJQy2ajxWDSdKPgTCx-1" target="8_3eRjNjorTgoT3pwRIV-1">
          <mxGeometry width="50" height="50" relative="1" as="geometry">
            <mxPoint x="435" y="380" as="sourcePoint" />
            <mxPoint x="495" y="370" as="targetPoint" />
          </mxGeometry>
        </mxCell>
      </root>
    </mxGraphModel>
  </diagram>
</mxfile>
